<svg xmlns="http://www.w3.org/2000/svg" viewBox="0 0 217.332 217.375">
  <defs>
    <style>
      .cls-1 {
        fill: #ef4044;
      }
    </style>
  </defs>
  <path id="cancel" class="cls-1" d="M342.3,132.9a13.46,13.46,0,0,0-19.1,0l-85.6,85.6L152,132.9A13.506,13.506,0,1,0,132.9,152l85.6,85.6-85.6,85.6a13.55,13.55,0,0,0,9.5,23.1,13.173,13.173,0,0,0,9.5-4l85.6-85.6,85.6,85.6a13.588,13.588,0,0,0,9.5,4,13.01,13.01,0,0,0,9.5-4,13.46,13.46,0,0,0,0-19.1l-85.4-85.6L342.3,152a13.46,13.46,0,0,0,0-19.1Z" transform="translate(-128.943 -128.925)"/>
</svg>
