<svg xmlns="http://www.w3.org/2000/svg" viewBox="0 0 22 22">
  <defs>
    <style>
      .cls-1 {
        fill: #fff;
      }
    </style>
  </defs>
  <g id="Group_1483" data-name="Group 1483" transform="translate(-1238 -410)">
    <path id="Exclusion_8" data-name="Exclusion 8" class="cls-1" d="M4096,6285a11,11,0,1,1,7.777-3.222A10.929,10.929,0,0,1,4096,6285Zm-5.377-8.167h0l-.617,2.77a.279.279,0,0,0,.055.235.276.276,0,0,0,.215.1.291.291,0,0,0,.067-.008l2.721-.659-2.44-2.442Zm6.838-6.839-6.177,6.178,2.44,2.441,6.179-6.18ZM4099.9,6268a1.072,1.072,0,0,0-.763.316l-1.042,1.041,2.44,2.441,1.216-1.216a.831.831,0,0,0,0-1.179l-1.088-1.088A1.069,1.069,0,0,0,4099.9,6268Z" transform="translate(-2847 -5853)"/>
  </g>
</svg>
